<svg width="200" height="200" viewBox="0 0 200 200" fill="none" xmlns="http://www.w3.org/2000/svg">
<g filter="url(#filter0_iiii_4_13)">
<path d="M200 100C200 155.228 155.228 200 100 200C44.7715 200 0 155.228 0 100C0 44.7715 44.7715 0 100 0C155.228 0 200 44.7715 200 100Z" fill="#CDD4B1"/>
<path d="M100.346 38C83.4089 38 81.2944 38.0779 74.6441 38.3741C68.0042 38.6858 63.4841 39.7301 59.5095 41.2732C55.4102 42.863 51.9292 44.9984 48.4638 48.4638C44.9984 51.9292 42.8578 55.405 41.2732 59.5095C39.7301 63.4841 38.6807 68.0042 38.3741 74.644C38.0624 81.2943 38 83.4089 38 100.346C38 117.284 38.078 119.398 38.3741 126.049C38.6858 132.683 39.7301 137.209 41.2732 141.183C42.863 145.277 44.9984 148.763 48.4638 152.229C51.9292 155.689 55.4051 157.835 59.5095 159.419C63.4893 160.957 68.0094 162.012 74.6441 162.319C81.2944 162.63 83.4089 162.693 100.346 162.693C117.284 162.693 119.398 162.615 126.049 162.319C132.683 162.007 137.209 160.957 141.183 159.419C145.277 157.83 148.764 155.689 152.229 152.229C155.689 148.763 157.835 145.293 159.419 141.183C160.957 137.209 162.012 132.683 162.319 126.049C162.63 119.398 162.693 117.284 162.693 100.346C162.693 83.4089 162.615 81.2943 162.319 74.644C162.007 68.0094 160.957 63.4789 159.419 59.5095C157.83 55.4102 155.689 51.9292 152.229 48.4638C148.764 44.9984 145.293 42.8578 141.183 41.2732C137.209 39.7301 132.683 38.6806 126.049 38.3741C119.398 38.0623 117.284 38 100.346 38ZM100.346 49.2224C116.988 49.2224 118.972 49.3055 125.545 49.5912C131.623 49.877 134.923 50.8849 137.115 51.7474C140.035 52.8748 142.103 54.2256 144.295 56.4026C146.472 58.5847 147.823 60.6577 148.951 63.5776C149.803 65.7701 150.821 69.0692 151.096 75.148C151.392 81.7256 151.46 83.6999 151.46 100.346C151.46 116.993 151.382 118.972 151.076 125.545C150.759 131.623 149.745 134.923 148.888 137.115C147.724 140.035 146.4 142.103 144.217 144.295C142.041 146.472 139.936 147.823 137.048 148.951C134.865 149.803 131.514 150.821 125.436 151.096C118.816 151.392 116.868 151.46 100.19 151.46C83.5077 151.46 81.5593 151.382 74.9454 151.076C68.8615 150.759 65.5104 149.745 63.3282 148.888C60.372 147.724 58.3405 146.4 56.1636 144.217C53.9763 142.04 52.5787 139.936 51.4876 137.048C50.6303 134.865 49.6224 131.514 49.3055 125.436C49.0717 118.889 48.9885 116.868 48.9885 100.268C48.9885 83.6635 49.0717 81.6372 49.3055 75.0129C49.6224 68.9342 50.6303 65.5883 51.4876 63.4061C52.5787 60.4447 53.9763 58.4184 56.1636 56.2311C58.3405 54.0542 60.372 52.6514 63.3282 51.5655C65.5104 50.7031 68.7887 49.6899 74.8675 49.3782C81.4918 49.1444 83.4401 49.0665 100.113 49.0665L100.346 49.2224ZM100.346 68.3315C82.6556 68.3315 68.3315 82.6712 68.3315 100.346C68.3315 118.037 82.6712 132.361 100.346 132.361C118.037 132.361 132.361 118.022 132.361 100.346C132.361 82.6556 118.022 68.3315 100.346 68.3315ZM100.346 121.128C88.8643 121.128 79.5643 111.828 79.5643 100.346C79.5643 88.8642 88.8643 79.5642 100.346 79.5642C111.828 79.5642 121.128 88.8642 121.128 100.346C121.128 111.828 111.828 121.128 100.346 121.128ZM141.11 67.069C141.11 71.1994 137.754 74.5505 133.629 74.5505C129.498 74.5505 126.147 71.1942 126.147 67.069C126.147 62.9437 129.504 59.5926 133.629 59.5926C137.749 59.5874 141.11 62.9437 141.11 67.069Z" fill="#FEFCF6"/>
<path d="M100.346 38C83.4089 38 81.2944 38.0779 74.6441 38.3741C68.0042 38.6858 63.4841 39.7301 59.5095 41.2732C55.4102 42.863 51.9292 44.9984 48.4638 48.4638C44.9984 51.9292 42.8578 55.405 41.2732 59.5095C39.7301 63.4841 38.6807 68.0042 38.3741 74.644C38.0624 81.2943 38 83.4089 38 100.346C38 117.284 38.078 119.398 38.3741 126.049C38.6858 132.683 39.7301 137.209 41.2732 141.183C42.863 145.277 44.9984 148.763 48.4638 152.229C51.9292 155.689 55.4051 157.835 59.5095 159.419C63.4893 160.957 68.0094 162.012 74.6441 162.319C81.2944 162.63 83.4089 162.693 100.346 162.693C117.284 162.693 119.398 162.615 126.049 162.319C132.683 162.007 137.209 160.957 141.183 159.419C145.277 157.83 148.764 155.689 152.229 152.229C155.689 148.763 157.835 145.293 159.419 141.183C160.957 137.209 162.012 132.683 162.319 126.049C162.63 119.398 162.693 117.284 162.693 100.346C162.693 83.4089 162.615 81.2943 162.319 74.644C162.007 68.0094 160.957 63.4789 159.419 59.5095C157.83 55.4102 155.689 51.9292 152.229 48.4638C148.764 44.9984 145.293 42.8578 141.183 41.2732C137.209 39.7301 132.683 38.6806 126.049 38.3741C119.398 38.0623 117.284 38 100.346 38ZM100.346 49.2224C116.988 49.2224 118.972 49.3055 125.545 49.5912C131.623 49.877 134.923 50.8849 137.115 51.7474C140.035 52.8748 142.103 54.2256 144.295 56.4026C146.472 58.5847 147.823 60.6577 148.951 63.5776C149.803 65.7701 150.821 69.0692 151.096 75.148C151.392 81.7256 151.46 83.6999 151.46 100.346C151.46 116.993 151.382 118.972 151.076 125.545C150.759 131.623 149.745 134.923 148.888 137.115C147.724 140.035 146.4 142.103 144.217 144.295C142.041 146.472 139.936 147.823 137.048 148.951C134.865 149.803 131.514 150.821 125.436 151.096C118.816 151.392 116.868 151.46 100.19 151.46C83.5077 151.46 81.5593 151.382 74.9454 151.076C68.8615 150.759 65.5104 149.745 63.3282 148.888C60.372 147.724 58.3405 146.4 56.1636 144.217C53.9763 142.04 52.5787 139.936 51.4876 137.048C50.6303 134.865 49.6224 131.514 49.3055 125.436C49.0717 118.889 48.9885 116.868 48.9885 100.268C48.9885 83.6635 49.0717 81.6372 49.3055 75.0129C49.6224 68.9342 50.6303 65.5883 51.4876 63.4061C52.5787 60.4447 53.9763 58.4184 56.1636 56.2311C58.3405 54.0542 60.372 52.6514 63.3282 51.5655C65.5104 50.7031 68.7887 49.6899 74.8675 49.3782C81.4918 49.1444 83.4401 49.0665 100.113 49.0665L100.346 49.2224ZM100.346 68.3315C82.6556 68.3315 68.3315 82.6712 68.3315 100.346C68.3315 118.037 82.6712 132.361 100.346 132.361C118.037 132.361 132.361 118.022 132.361 100.346C132.361 82.6556 118.022 68.3315 100.346 68.3315ZM100.346 121.128C88.8643 121.128 79.5643 111.828 79.5643 100.346C79.5643 88.8642 88.8643 79.5642 100.346 79.5642C111.828 79.5642 121.128 88.8642 121.128 100.346C121.128 111.828 111.828 121.128 100.346 121.128ZM141.11 67.069C141.11 71.1994 137.754 74.5505 133.629 74.5505C129.498 74.5505 126.147 71.1942 126.147 67.069C126.147 62.9437 129.504 59.5926 133.629 59.5926C137.749 59.5874 141.11 62.9437 141.11 67.069Z" fill="#FEFCF6"/>
<path d="M100.346 38C83.4089 38 81.2944 38.0779 74.6441 38.3741C68.0042 38.6858 63.4841 39.7301 59.5095 41.2732C55.4102 42.863 51.9292 44.9984 48.4638 48.4638C44.9984 51.9292 42.8578 55.405 41.2732 59.5095C39.7301 63.4841 38.6807 68.0042 38.3741 74.644C38.0624 81.2943 38 83.4089 38 100.346C38 117.284 38.078 119.398 38.3741 126.049C38.6858 132.683 39.7301 137.209 41.2732 141.183C42.863 145.277 44.9984 148.763 48.4638 152.229C51.9292 155.689 55.4051 157.835 59.5095 159.419C63.4893 160.957 68.0094 162.012 74.6441 162.319C81.2944 162.63 83.4089 162.693 100.346 162.693C117.284 162.693 119.398 162.615 126.049 162.319C132.683 162.007 137.209 160.957 141.183 159.419C145.277 157.83 148.764 155.689 152.229 152.229C155.689 148.763 157.835 145.293 159.419 141.183C160.957 137.209 162.012 132.683 162.319 126.049C162.63 119.398 162.693 117.284 162.693 100.346C162.693 83.4089 162.615 81.2943 162.319 74.644C162.007 68.0094 160.957 63.4789 159.419 59.5095C157.83 55.4102 155.689 51.9292 152.229 48.4638C148.764 44.9984 145.293 42.8578 141.183 41.2732C137.209 39.7301 132.683 38.6806 126.049 38.3741C119.398 38.0623 117.284 38 100.346 38ZM100.346 49.2224C116.988 49.2224 118.972 49.3055 125.545 49.5912C131.623 49.877 134.923 50.8849 137.115 51.7474C140.035 52.8748 142.103 54.2256 144.295 56.4026C146.472 58.5847 147.823 60.6577 148.951 63.5776C149.803 65.7701 150.821 69.0692 151.096 75.148C151.392 81.7256 151.46 83.6999 151.46 100.346C151.46 116.993 151.382 118.972 151.076 125.545C150.759 131.623 149.745 134.923 148.888 137.115C147.724 140.035 146.4 142.103 144.217 144.295C142.041 146.472 139.936 147.823 137.048 148.951C134.865 149.803 131.514 150.821 125.436 151.096C118.816 151.392 116.868 151.46 100.19 151.46C83.5077 151.46 81.5593 151.382 74.9454 151.076C68.8615 150.759 65.5104 149.745 63.3282 148.888C60.372 147.724 58.3405 146.4 56.1636 144.217C53.9763 142.04 52.5787 139.936 51.4876 137.048C50.6303 134.865 49.6224 131.514 49.3055 125.436C49.0717 118.889 48.9885 116.868 48.9885 100.268C48.9885 83.6635 49.0717 81.6372 49.3055 75.0129C49.6224 68.9342 50.6303 65.5883 51.4876 63.4061C52.5787 60.4447 53.9763 58.4184 56.1636 56.2311C58.3405 54.0542 60.372 52.6514 63.3282 51.5655C65.5104 50.7031 68.7887 49.6899 74.8675 49.3782C81.4918 49.1444 83.4401 49.0665 100.113 49.0665L100.346 49.2224ZM100.346 68.3315C82.6556 68.3315 68.3315 82.6712 68.3315 100.346C68.3315 118.037 82.6712 132.361 100.346 132.361C118.037 132.361 132.361 118.022 132.361 100.346C132.361 82.6556 118.022 68.3315 100.346 68.3315ZM100.346 121.128C88.8643 121.128 79.5643 111.828 79.5643 100.346C79.5643 88.8642 88.8643 79.5642 100.346 79.5642C111.828 79.5642 121.128 88.8642 121.128 100.346C121.128 111.828 111.828 121.128 100.346 121.128ZM141.11 67.069C141.11 71.1994 137.754 74.5505 133.629 74.5505C129.498 74.5505 126.147 71.1942 126.147 67.069C126.147 62.9437 129.504 59.5926 133.629 59.5926C137.749 59.5874 141.11 62.9437 141.11 67.069Z" fill="#FEFCF6"/>
</g>
<defs>
<filter id="filter0_iiii_4_13" x="-3" y="-4" width="205" height="208" filterUnits="userSpaceOnUse" color-interpolation-filters="sRGB">
<feFlood flood-opacity="0" result="BackgroundImageFix"/>
<feBlend mode="normal" in="SourceGraphic" in2="BackgroundImageFix" result="shape"/>
<feColorMatrix in="SourceAlpha" type="matrix" values="0 0 0 0 0 0 0 0 0 0 0 0 0 0 0 0 0 0 127 0" result="hardAlpha"/>
<feOffset dx="2" dy="4"/>
<feGaussianBlur stdDeviation="3"/>
<feComposite in2="hardAlpha" operator="arithmetic" k2="-1" k3="1"/>
<feColorMatrix type="matrix" values="0 0 0 0 0.596078 0 0 0 0 0.615686 0 0 0 0 0.501961 0 0 0 0.75 0"/>
<feBlend mode="normal" in2="shape" result="effect1_innerShadow_4_13"/>
<feColorMatrix in="SourceAlpha" type="matrix" values="0 0 0 0 0 0 0 0 0 0 0 0 0 0 0 0 0 0 127 0" result="hardAlpha"/>
<feOffset dx="-1" dy="-1"/>
<feGaussianBlur stdDeviation="1.5"/>
<feComposite in2="hardAlpha" operator="arithmetic" k2="-1" k3="1"/>
<feColorMatrix type="matrix" values="0 0 0 0 0.937255 0 0 0 0 0.941176 0 0 0 0 0.882353 0 0 0 0.75 0"/>
<feBlend mode="normal" in2="effect1_innerShadow_4_13" result="effect2_innerShadow_4_13"/>
<feColorMatrix in="SourceAlpha" type="matrix" values="0 0 0 0 0 0 0 0 0 0 0 0 0 0 0 0 0 0 127 0" result="hardAlpha"/>
<feOffset dx="2" dy="-4"/>
<feGaussianBlur stdDeviation="2.5"/>
<feComposite in2="hardAlpha" operator="arithmetic" k2="-1" k3="1"/>
<feColorMatrix type="matrix" values="0 0 0 0 0.596078 0 0 0 0 0.615686 0 0 0 0 0.501961 0 0 0 0.2 0"/>
<feBlend mode="normal" in2="effect2_innerShadow_4_13" result="effect3_innerShadow_4_13"/>
<feColorMatrix in="SourceAlpha" type="matrix" values="0 0 0 0 0 0 0 0 0 0 0 0 0 0 0 0 0 0 127 0" result="hardAlpha"/>
<feOffset dx="-3" dy="5"/>
<feGaussianBlur stdDeviation="1.5"/>
<feComposite in2="hardAlpha" operator="arithmetic" k2="-1" k3="1"/>
<feColorMatrix type="matrix" values="0 0 0 0 0.937255 0 0 0 0 0.941176 0 0 0 0 0.882353 0 0 0 0.2 0"/>
<feBlend mode="normal" in2="effect3_innerShadow_4_13" result="effect4_innerShadow_4_13"/>
</filter>
</defs>
</svg>
