<svg width="200" height="200" viewBox="0 0 200 200" fill="none" xmlns="http://www.w3.org/2000/svg">
<g filter="url(#filter0_iiii_1_36)">
<path d="M200 100C200 155.228 155.228 200 100 200C44.7715 200 0 155.228 0 100C0 44.7715 44.7715 0 100 0C155.228 0 200 44.7715 200 100Z" fill="#CDD4B1"/>
<path d="M100.249 37.9085C83.312 37.9085 81.1974 37.9864 74.5471 38.2826C67.9072 38.5943 63.3871 39.6386 59.4125 41.1817C55.3133 42.7715 51.8323 44.9069 48.3669 48.3723C44.9014 51.8377 42.7609 55.3135 41.1762 59.418C39.6332 63.3926 38.5837 67.9127 38.2771 74.5526C37.9654 81.2028 37.9031 83.3174 37.9031 100.255C37.9031 117.192 37.981 119.307 38.2771 125.957C38.5889 132.592 39.6332 137.117 41.1762 141.092C42.7661 145.186 44.9014 148.672 48.3669 152.137C51.8323 155.598 55.3081 157.743 59.4125 159.328C63.3923 160.866 67.9124 161.921 74.5471 162.227C81.1974 162.539 83.312 162.601 100.249 162.601C117.187 162.601 119.301 162.523 125.952 162.227C132.586 161.915 137.112 160.866 141.086 159.328C145.18 157.738 148.667 155.598 152.132 152.137C155.592 148.672 157.738 145.201 159.323 141.092C160.86 137.117 161.915 132.592 162.222 125.957C162.533 119.307 162.596 117.192 162.596 100.255C162.596 83.3174 162.518 81.2028 162.222 74.5526C161.91 67.9179 160.86 63.3874 159.323 59.418C157.733 55.3187 155.592 51.8377 152.132 48.3723C148.667 44.9069 145.196 42.7663 141.086 41.1817C137.112 39.6386 132.586 38.5891 125.952 38.2826C119.301 37.9708 117.187 37.9085 100.249 37.9085ZM100.249 49.1308C116.891 49.1308 118.875 49.214 125.448 49.4997C131.526 49.7855 134.826 50.7934 137.018 51.6559C139.938 52.7833 142.006 54.1341 144.198 56.3111C146.375 58.4932 147.726 60.5662 148.854 63.4861C149.706 65.6786 150.724 68.9778 150.999 75.0565C151.295 81.6341 151.363 83.6084 151.363 100.255C151.363 116.901 151.285 118.881 150.979 125.453C150.662 131.532 149.649 134.831 148.791 137.024C147.627 139.944 146.303 142.011 144.12 144.204C141.944 146.381 139.839 147.732 136.951 148.859C134.768 149.711 131.417 150.729 125.339 151.005C118.72 151.301 116.771 151.368 100.094 151.368C83.4107 151.368 81.4624 151.291 74.8485 150.984C68.7645 150.667 65.4134 149.654 63.2313 148.797C60.275 147.633 58.2435 146.308 56.0666 144.126C53.8793 141.949 52.4817 139.845 51.3907 136.956C50.5334 134.774 49.5255 131.423 49.2085 125.344C48.9747 118.798 48.8916 116.777 48.8916 100.177C48.8916 83.572 48.9747 81.5457 49.2085 74.9214C49.5255 68.8427 50.5334 65.4968 51.3907 63.3146C52.4817 60.3532 53.8793 58.3269 56.0666 56.1396C58.2435 53.9627 60.275 52.5599 63.2313 51.474C65.4134 50.6116 68.6918 49.5984 74.7705 49.2867C81.3948 49.0529 83.3431 48.975 100.016 48.975L100.249 49.1308ZM100.249 68.24C82.5586 68.24 68.2346 82.5797 68.2346 100.255C68.2346 117.946 82.5742 132.27 100.249 132.27C117.94 132.27 132.264 117.93 132.264 100.255C132.264 82.5641 117.925 68.24 100.249 68.24ZM100.249 121.037C88.7673 121.037 79.4673 111.737 79.4673 100.255C79.4673 88.7727 88.7673 79.4727 100.249 79.4727C111.732 79.4727 121.032 88.7727 121.032 100.255C121.032 111.737 111.732 121.037 100.249 121.037ZM141.014 66.9775C141.014 71.1079 137.657 74.459 133.532 74.459C129.402 74.459 126.05 71.1027 126.05 66.9775C126.05 62.8522 129.407 59.5011 133.532 59.5011C137.652 59.4959 141.014 62.8522 141.014 66.9775Z" fill="#FEFCF6"/>
</g>
<defs>
<filter id="filter0_iiii_1_36" x="-3" y="-1" width="204" height="204" filterUnits="userSpaceOnUse" color-interpolation-filters="sRGB">
<feFlood flood-opacity="0" result="BackgroundImageFix"/>
<feBlend mode="normal" in="SourceGraphic" in2="BackgroundImageFix" result="shape"/>
<feColorMatrix in="SourceAlpha" type="matrix" values="0 0 0 0 0 0 0 0 0 0 0 0 0 0 0 0 0 0 127 0" result="hardAlpha"/>
<feOffset dx="1" dy="1"/>
<feGaussianBlur stdDeviation="1"/>
<feComposite in2="hardAlpha" operator="arithmetic" k2="-1" k3="1"/>
<feColorMatrix type="matrix" values="0 0 0 0 0.596078 0 0 0 0 0.615686 0 0 0 0 0.501961 0 0 0 0.4 0"/>
<feBlend mode="normal" in2="shape" result="effect1_innerShadow_1_36"/>
<feColorMatrix in="SourceAlpha" type="matrix" values="0 0 0 0 0 0 0 0 0 0 0 0 0 0 0 0 0 0 127 0" result="hardAlpha"/>
<feOffset dx="-1" dy="-1"/>
<feGaussianBlur stdDeviation="1.5"/>
<feComposite in2="hardAlpha" operator="arithmetic" k2="-1" k3="1"/>
<feColorMatrix type="matrix" values="0 0 0 0 0.937255 0 0 0 0 0.941176 0 0 0 0 0.882353 0 0 0 1 0"/>
<feBlend mode="normal" in2="effect1_innerShadow_1_36" result="effect2_innerShadow_1_36"/>
<feColorMatrix in="SourceAlpha" type="matrix" values="0 0 0 0 0 0 0 0 0 0 0 0 0 0 0 0 0 0 127 0" result="hardAlpha"/>
<feOffset dx="1" dy="-1"/>
<feGaussianBlur stdDeviation="1.5"/>
<feComposite in2="hardAlpha" operator="arithmetic" k2="-1" k3="1"/>
<feColorMatrix type="matrix" values="0 0 0 0 0.596078 0 0 0 0 0.615686 0 0 0 0 0.501961 0 0 0 0.2 0"/>
<feBlend mode="normal" in2="effect2_innerShadow_1_36" result="effect3_innerShadow_1_36"/>
<feColorMatrix in="SourceAlpha" type="matrix" values="0 0 0 0 0 0 0 0 0 0 0 0 0 0 0 0 0 0 127 0" result="hardAlpha"/>
<feOffset dx="-3" dy="5"/>
<feGaussianBlur stdDeviation="1.5"/>
<feComposite in2="hardAlpha" operator="arithmetic" k2="-1" k3="1"/>
<feColorMatrix type="matrix" values="0 0 0 0 0.937255 0 0 0 0 0.941176 0 0 0 0 0.882353 0 0 0 0.4 0"/>
<feBlend mode="normal" in2="effect3_innerShadow_1_36" result="effect4_innerShadow_1_36"/>
</filter>
</defs>
</svg>
