<svg width="199" height="200" viewBox="0 0 199 200" fill="none" xmlns="http://www.w3.org/2000/svg">
<g filter="url(#filter0_iiii_1_37)">
<path d="M196.706 100C196.706 155.228 153.256 200 99.6568 200C46.0578 200 2.60734 155.228 2.60734 100C2.60734 44.7715 46.0578 0 99.6568 0C153.256 0 196.706 44.7715 196.706 100Z" fill="#FEFCF6"/>
<path d="M99.6455 0C44.611 0 0 44.725 0 99.8917C0 142.217 26.2496 178.367 63.3216 192.908C62.4488 185 61.6675 172.883 63.6624 164.25C65.4827 156.442 75.3491 114.608 75.3491 114.608C75.3491 114.608 72.3652 108.608 72.3652 99.7667C72.3652 85.9083 80.4029 75.5083 90.3858 75.5083C98.8973 75.5083 103.004 81.9167 103.004 89.575C103.004 98.15 97.5757 110.967 94.7579 122.842C92.3889 132.783 99.7452 140.883 109.512 140.883C127.2 140.883 140.832 122.175 140.832 95.1583C140.832 71.3167 123.684 54.5833 99.205 54.5833C70.8607 54.5833 54.2447 75.9333 54.2447 97.9083C54.2447 106.517 57.5197 115.767 61.6342 120.75C62.4571 121.75 62.5652 122.625 62.3407 123.625C61.5926 126.75 59.9053 133.617 59.5645 134.983C59.1239 136.858 58.1348 137.242 56.2314 136.358C43.8048 130.608 36.008 112.375 36.008 97.6417C36.008 66.175 58.8496 37.2083 101.84 37.2083C136.402 37.2083 163.283 61.9333 163.283 94.9C163.283 129.358 141.613 157.083 111.474 157.083C101.383 157.083 91.9069 151.842 88.5488 145.592L82.323 169.325C80.0871 178.033 73.9776 188.925 69.8715 195.542C79.206 198.417 89.0392 200 99.3795 200C154.298 200 199 155.292 199 100.108C199 44.9167 154.298 0.216667 99.3795 0.216667L99.6455 0Z" fill="#CDD4B1"/>
</g>
<defs>
<filter id="filter0_iiii_1_37" x="-3" y="-4" width="204" height="208" filterUnits="userSpaceOnUse" color-interpolation-filters="sRGB">
<feFlood flood-opacity="0" result="BackgroundImageFix"/>
<feBlend mode="normal" in="SourceGraphic" in2="BackgroundImageFix" result="shape"/>
<feColorMatrix in="SourceAlpha" type="matrix" values="0 0 0 0 0 0 0 0 0 0 0 0 0 0 0 0 0 0 127 0" result="hardAlpha"/>
<feOffset dx="2" dy="4"/>
<feGaussianBlur stdDeviation="3"/>
<feComposite in2="hardAlpha" operator="arithmetic" k2="-1" k3="1"/>
<feColorMatrix type="matrix" values="0 0 0 0 0.596078 0 0 0 0 0.615686 0 0 0 0 0.501961 0 0 0 0.75 0"/>
<feBlend mode="normal" in2="shape" result="effect1_innerShadow_1_37"/>
<feColorMatrix in="SourceAlpha" type="matrix" values="0 0 0 0 0 0 0 0 0 0 0 0 0 0 0 0 0 0 127 0" result="hardAlpha"/>
<feOffset dx="-1" dy="-1"/>
<feGaussianBlur stdDeviation="1.5"/>
<feComposite in2="hardAlpha" operator="arithmetic" k2="-1" k3="1"/>
<feColorMatrix type="matrix" values="0 0 0 0 0.937255 0 0 0 0 0.941176 0 0 0 0 0.882353 0 0 0 0.75 0"/>
<feBlend mode="normal" in2="effect1_innerShadow_1_37" result="effect2_innerShadow_1_37"/>
<feColorMatrix in="SourceAlpha" type="matrix" values="0 0 0 0 0 0 0 0 0 0 0 0 0 0 0 0 0 0 127 0" result="hardAlpha"/>
<feOffset dx="2" dy="-4"/>
<feGaussianBlur stdDeviation="2.5"/>
<feComposite in2="hardAlpha" operator="arithmetic" k2="-1" k3="1"/>
<feColorMatrix type="matrix" values="0 0 0 0 0.596078 0 0 0 0 0.615686 0 0 0 0 0.501961 0 0 0 0.2 0"/>
<feBlend mode="normal" in2="effect2_innerShadow_1_37" result="effect3_innerShadow_1_37"/>
<feColorMatrix in="SourceAlpha" type="matrix" values="0 0 0 0 0 0 0 0 0 0 0 0 0 0 0 0 0 0 127 0" result="hardAlpha"/>
<feOffset dx="-3" dy="5"/>
<feGaussianBlur stdDeviation="1.5"/>
<feComposite in2="hardAlpha" operator="arithmetic" k2="-1" k3="1"/>
<feColorMatrix type="matrix" values="0 0 0 0 0.937255 0 0 0 0 0.941176 0 0 0 0 0.882353 0 0 0 0.2 0"/>
<feBlend mode="normal" in2="effect3_innerShadow_1_37" result="effect4_innerShadow_1_37"/>
</filter>
</defs>
</svg>
